PathFileType	4	(X/Y/Z)	C:/Users/beibeiliu/ov580/test_trc\sequence.10_training_dense_right.trc
DataRate	CameraRate	NumFrames	NumMarkers	Units	OrigDataRate	OrigDataStartFrame	OrigNumFrames
120	120	12	19	mm	120	1	302
Frame#	Time	ThumbCMC			ThumbMCP			ThumbIP			ThumbTip			IndexMCP			IndexPIP			IndexTip			MiddleMCP			MiddlePIP			MiddleTip			RingMCP			RingPIP			RingTip			PinkyMCP			PinkyPIP			PinkyTip			BackHand1			BackHand2			BackHand3	
		X0	Y0	Z0	X1	Y1	Z1	X2	Y2	Z2	X3	Y3	Z3	X4	Y4	Z4	X5	Y5	Z5	X6	Y6	Z6	X7	Y7	Z7	X8	Y8	Z8	X9	Y9	Z9	X10	Y10	Z10	X11	Y11	Z11	X12	Y12	Z12	X13	Y13	Z13	X14	Y14	Z14	X15	Y15	Z15	X16	Y16	Z16	X17	Y17	Z17	X18	Y18	Z18	
0	0	180.675	-2.26577	-14.4749	168.428	-17.5419	-40.9045	177.783	-28.8093	-62.4199	187.46	-39.0802	-77.4871	208.71	-13.2206	-76.7862	218.159	-22.5079	-97.2612	221.498	-24.746	-114.613	229.599	-11.3375	-76.9291	232.128	-16.9809	-96.7879	243.097	-15.7739	-118.132	241.753	-12.6772	-66.1648	248.071	-17.1884	-85.8234	256.789	-17.6257	-104.483	250.914	-12.1911	-49.3885	257.84	-15.3106	-65.7976	264.834	-14.5901	-80.1259	229.736	7.63585	-29.2237	220.93	21.4333	-7.24929	201.09	14.7524	-25.8716	
1	0.00833333	181.339	-4.22531	-20.0862	172.246	-19.1595	-37.2737	180.483	-33.3704	-60.4782	184.202	-47.3873	-73.9592	209.471	-23.1279	-75.2404	216.224	-33.1707	-95.546	226.589	-39.514	-112.893	226.708	-22.2672	-75.5783	233.385	-31.4569	-98.4151	243.996	-32.5162	-117.723	240.689	-23.189	-67.2364	251.818	-29.2657	-79.3912	255.707	-33.1129	-101.826	250.83	-21.3594	-46.9475	258.692	-26.8079	-64.6214	262.031	-29.8057	-82.0341	231.16	1.84705	-29.8397	223.679	17.6753	-9.64767	203.551	10.9595	-31.1901	
2	0.0166667	180.376	-4.29543	-15.7521	174.745	-22.6522	-37.7759	179.086	-38.5026	-57.9978	187.205	-52.0368	-69.8622	210.354	-31.8478	-73.413	213.58	-43.0296	-89.6772	224.833	-52.0571	-106.143	228.612	-34.4525	-77.7209	232.951	-43.8916	-94.8593	244.702	-48.9105	-115.365	243.572	-32.0034	-63.2025	247.78	-40.8666	-77.6028	255.664	-47.8007	-96.9208	251.575	-28.5469	-47.0906	258.113	-37.0891	-59.4276	261.447	-40.2945	-75.2472	234.027	-3.52425	-31.3312	229.826	14.163	-13.8677	207.372	8.077	-31.1691	
3	0.025	181.968	-6.37889	-18.1456	172.01	-24.2321	-35.0623	180.52	-42.5841	-55.5387	185.255	-59.105	-66.7937	207.528	-38.4239	-70.2821	214.448	-55.0645	-88.5241	224.814	-64.7412	-101.9	231.568	-42.3117	-71.7852	235.904	-55.9578	-90.0399	244.689	-63.8954	-107.544	242.294	-40.5166	-62.7279	249.33	-51.8933	-77.3506	253.206	-60.9058	-93.2355	251.578	-35.2017	-43.6794	256.117	-44.7148	-55.0045	262.805	-52.2697	-75.1554	233.101	-7.06128	-33.0392	230.105	10.8539	-12.3716	206.389	1.36991	-34.9041	
4	0.0333333	183.451	-7.28887	-19.0554	174.441	-25.9641	-33.1027	178.929	-45.4212	-51.0462	184.792	-63.5692	-61.6695	209.995	-47.7172	-68.6217	211.608	-61.7615	-81.3868	222.094	-76.1539	-94.2705	225.777	-48.3161	-67.0621	231.84	-67.2379	-84.76	238.573	-76.0854	-100.942	240.327	-46.7255	-54.8849	245.008	-62.7732	-73.7082	251.381	-72.6183	-89.396	252.911	-41.4484	-38.3675	256.202	-54.5422	-56.0515	260.75	-64.0204	-70.8747	234.901	-10.6508	-29.4909	236.192	8.84417	-14.1394	213.233	-0.0591373	-30.8243	
5	0.0416667	187.079	-9.36511	-18.7618	177.778	-27.4018	-30.3963	178.078	-45.8361	-43.1386	181.076	-64.6483	-54.3848	205.756	-54.2276	-64.1768	213.877	-72.5716	-74.8864	214.227	-88.5076	-91.7179	227.139	-57.1601	-62.2963	230.893	-75.2657	-75.7246	233.695	-88.9971	-92.0751	238.91	-56.963	-54.3052	245.252	-70.8898	-65.4993	244.908	-83.8104	-79.6528	254.09	-50.9209	-38.4435	252.93	-61.2701	-49.5595	260.15	-74.3526	-67.6231	241.38	-19.1589	-29.3775	237.418	1.73275	-17.0215	216.314	-7.06181	-33.7436	
6	0.05	191.647	-10.3863	-17.2364	174.799	-26.9394	-30.0537	174.175	-50.0135	-44.056	174.409	-68.5063	-50.3517	205.039	-61.2249	-59.5016	205.321	-81.2863	-70.8816	213.005	-98.6449	-79.9275	222.163	-66.1308	-59.5559	223.96	-85.7342	-69.5046	228.297	-103.607	-84.5404	240.706	-65.9458	-49.4481	242.408	-81.7886	-59.4514	243.204	-95.8131	-71.8479	250.013	-56.92	-33.2554	253.842	-73.748	-45.6909	255.228	-87.4655	-61.4556	239.584	-22.2309	-28.9596	238.398	-1.54972	-17.3323	216.382	-11.4083	-33.6908	
7	0.0583333	193.493	-8.32664	-15.843	176.547	-27.4227	-30.197	174.152	-50.5467	-40.4943	173.294	-71.7514	-47.0931	201.316	-67.8305	-56.9197	203.598	-91.4076	-63.1013	204.553	-110.559	-73.4453	221	-76.7354	-54.2965	219.113	-96.808	-63.3625	224	-119.216	-77.1729	238.234	-76.255	-44.1876	238.831	-93.5739	-53.5087	234.468	-106.866	-64.8748	248.945	-64.3923	-28.8358	247.997	-80.0623	-39.103	251.085	-97.0895	-53.3197	240.735	-32.6865	-31.681	243.201	-6.19738	-18.1902	217.543	-13.583	-33.917	
8	0.0666667	198.695	-15.5368	-19.6075	177.594	-29.0483	-29.82	174.515	-50.9771	-37.0463	170.075	-72.898	-41.5187	200.4	-75.556	-52.0598	197.637	-96.7884	-57.914	197.685	-115.818	-61.5853	218.457	-83.2805	-49.5194	214.017	-107.59	-57.3499	213.277	-123.981	-65.6099	232.515	-79.8938	-39.4212	230.389	-99.8077	-46.4716	228.714	-120.109	-58.3161	247.38	-74.5498	-26.3353	242.243	-91.478	-35.3839	245.466	-107.578	-42.8527	245.494	-40.5854	-28.6424	248.606	-17.4189	-19.3892	223.127	-20.5178	-32.5393	
9	0.075	200.023	-12.587	-19.1946	178.597	-30.9298	-29.5308	172.635	-52.2327	-36.0602	168.289	-75.683	-39.3973	200.206	-79.5228	-48.6523	191.474	-98.5698	-52.4691	186.812	-125.144	-50.4329	211.385	-90.1486	-47.5658	207.154	-113.03	-51.1996	203.979	-130.883	-58.7166	229.757	-86.8649	-34.7565	223.778	-106.237	-40.9385	219.319	-125.887	-49.6359	245.776	-82.8021	-21.4954	238.767	-98.6241	-29.7133	234.715	-114.284	-39.4408	240.644	-44.4497	-24.9229	250.023	-25.5742	-18.4719	227.901	-25.4438	-32.958	
10	0.0833333	205.929	-18.0342	-19.9162	180.239	-32.1275	-31.3167	170.638	-53.8935	-35.1994	168.084	-76.8723	-34.9987	197.872	-77.3598	-46.9357	185.883	-105.273	-48.0411	179.375	-124.336	-37.2022	210.161	-93.9501	-41.5942	204.588	-114.231	-44.4846	196.222	-136.601	-49.3372	226.357	-95.627	-31.2409	219.341	-112.251	-36.0656	211.65	-130.755	-42.607	242.116	-89.4596	-16.0792	233.395	-103.857	-24.539	227.74	-122.701	-34.8785	242.645	-49.0006	-21.633	253.682	-27.9502	-16.3857	229.394	-30.2456	-29.562	
11	0.0916667	209.558	-15.1117	-16.4751	187.798	-30.5445	-26.9979	173.794	-55.2162	-33.7917	166.789	-77.2658	-32.1553	194.865	-79.7557	-45.478	182.208	-104.872	-41.2291	165.445	-114.787	-21.2814	206.93	-91.5616	-38.7061	197.266	-116.797	-41.142	184.694	-137.08	-44.156	222.6	-97.4608	-27.6006	214.061	-115.433	-30.6339	200.795	-134.193	-37.0079	233.978	-92.9033	-15.6596	228.395	-110.3	-21.3297	222.893	-125.911	-27.8746	243.492	-59.2026	-19.4558	254.982	-35.0527	-12.9246	228.307	-35.3014	-30.451	
